<svg xmlns="http://www.w3.org/2000/svg" xmlns:xlink="http://www.w3.org/1999/xlink" width="500" zoomAndPan="magnify" viewBox="0 0 375 149.999998" height="200" preserveAspectRatio="xMidYMid meet" version="1.0"><defs><g/><clipPath id="c4e88608dc"><path d="M 28.121094 136 L 43 136 L 43 150 L 28.121094 150 Z M 28.121094 136 " clip-rule="nonzero"/></clipPath></defs><path fill="#97ede7" d="M 272.378906 26.398438 C 271.308594 23.242188 271.117188 19.839844 271.171875 16.519531 C 271.253906 10.675781 274.355469 0 282.53125 2.6875 C 289.171875 4.882812 294.085938 16.519531 294.304688 22.75 C 294.414062 26.097656 293.398438 29.582031 291.09375 32.050781 C 287.9375 35.398438 282.449219 36.304688 278.414062 34.082031 C 275.480469 32.515625 273.449219 29.554688 272.378906 26.398438 Z M 311.535156 35.507812 C 314.800781 38.773438 320.316406 39.128906 324.351562 36.878906 C 328.386719 34.628906 330.9375 30.238281 331.707031 25.683594 C 332.777344 19.320312 330.828125 5.597656 323.144531 3.59375 C 314.882812 1.425781 308.050781 7.738281 306.761719 15.421875 C 305.882812 20.746094 306.597656 26.316406 308.792969 31.253906 C 309.503906 32.792969 310.355469 34.300781 311.535156 35.507812 Z M 348.882812 36.550781 C 338.839844 35.261719 336.207031 48.898438 338.648438 55.84375 C 339.554688 58.367188 341.144531 60.917969 343.722656 61.632812 C 344.710938 61.90625 345.753906 61.878906 346.742188 61.742188 C 350.585938 61.246094 354.261719 59.21875 356.484375 56.0625 C 360.984375 49.722656 357.335938 37.648438 348.882812 36.550781 Z M 330.636719 73.347656 C 324.515625 67.972656 317.710938 62.921875 314.0625 55.648438 C 313.238281 54.003906 312.578125 52.21875 311.507812 50.710938 C 308.214844 46.019531 301.273438 45.003906 296.003906 46.101562 C 289.695312 47.417969 284.179688 51.453125 279.816406 56.089844 C 274.300781 61.988281 270.15625 69.011719 264.859375 75.105469 C 262.199219 78.152344 259.207031 81.003906 257.394531 84.601562 C 254.898438 89.566406 254.953125 95.6875 257.367188 100.707031 C 259.8125 105.703125 264.503906 109.515625 269.882812 110.996094 C 276.054688 112.699219 282.613281 111.4375 288.789062 109.734375 C 294.960938 108.035156 301.109375 105.921875 307.503906 105.894531 C 313.8125 105.867188 319.960938 107.898438 326.246094 108.171875 C 332.527344 108.445312 339.691406 106.304688 342.40625 100.625 C 343.476562 98.402344 343.722656 95.878906 343.476562 93.4375 C 342.679688 85.339844 336.753906 78.726562 330.636719 73.347656 Z M 330.636719 73.347656 " fill-opacity="1" fill-rule="nonzero"/><path fill="#ffe9d6" d="M 305.582031 13.089844 C 306.101562 13.28125 306.652344 13.5 307.171875 13.71875 C 312.496094 15.941406 313.949219 24.832031 316.722656 29.855469 C 318.972656 33.890625 323.117188 32.875 322.898438 37.539062 C 322.785156 39.84375 322.539062 42.148438 322.210938 44.398438 C 321.359375 50.546875 320.289062 56.636719 319 62.703125 C 318.808594 63.636719 310.328125 63.222656 310.109375 64.15625 C 308.132812 72.800781 306.40625 73.816406 299.40625 79.25 C 293.726562 83.667969 292.546875 82.046875 285.414062 83.089844 C 276.523438 84.40625 273.667969 90.964844 265.382812 87.480469 C 263.925781 86.878906 256.847656 93.050781 255.503906 92.226562 C 252.210938 90.144531 249.246094 87.480469 246.335938 84.875 C 241.671875 80.675781 237.007812 76.476562 232.34375 72.277344 C 229.1875 69.398438 225.949219 66.433594 223.863281 62.703125 C 219.445312 54.746094 221.09375 44.644531 225.207031 36.523438 C 234.152344 18.878906 253.140625 10.070312 272.734375 8.589844 C 278.359375 8.148438 281.597656 24.367188 289.582031 9.082031 C 295.183594 9.851562 300.585938 11.195312 305.582031 13.089844 Z M 305.582031 13.089844 " fill-opacity="1" fill-rule="evenodd"/><path fill="#65d6ce" d="M 250.78125 65.0625 C 246.667969 62.457031 243.320312 58.503906 241.863281 53.839844 C 240.410156 49.175781 240.957031 43.851562 243.675781 39.816406 C 246.089844 36.25 251.46875 32.269531 255.558594 35.425781 C 259.289062 38.308594 262.199219 44.976562 263.40625 49.339844 C 264.558594 53.5625 264.722656 58.09375 263.40625 62.261719 C 263.046875 63.332031 262.609375 64.402344 261.867188 65.253906 C 260.523438 66.761719 258.382812 67.367188 256.378906 67.203125 C 254.378906 67.011719 252.484375 66.132812 250.78125 65.0625 Z M 259.726562 94.421875 C 268.015625 97.910156 277.453125 96.671875 286.347656 95.355469 C 293.480469 94.3125 300.945312 93.105469 306.625 88.6875 C 313.621094 83.253906 316.449219 74.117188 318.425781 65.472656 C 318.644531 64.566406 318.835938 63.636719 319.027344 62.703125 C 317.105469 60.5625 315.378906 58.257812 314.089844 55.648438 C 313.265625 54.003906 312.605469 52.21875 311.535156 50.710938 C 308.242188 46.019531 301.300781 45.003906 296.03125 46.101562 C 289.722656 47.417969 284.207031 51.453125 279.84375 56.089844 C 274.328125 61.988281 270.183594 69.011719 264.886719 75.105469 C 262.226562 78.152344 259.234375 81.003906 257.421875 84.601562 C 256.242188 86.960938 255.640625 89.59375 255.585938 92.226562 C 256.875 93.050781 258.246094 93.820312 259.726562 94.421875 Z M 294.277344 22.777344 C 294.167969 19.070312 292.382812 13.5 289.582031 9.109375 C 284.066406 8.371094 278.386719 8.175781 272.734375 8.617188 C 271.664062 11.277344 271.171875 14.269531 271.144531 16.546875 C 271.089844 19.894531 271.28125 23.269531 272.351562 26.425781 C 273.421875 29.582031 275.453125 32.515625 278.386719 34.109375 C 282.421875 36.304688 287.910156 35.425781 291.066406 32.078125 C 293.371094 29.609375 294.386719 26.125 294.277344 22.777344 Z M 322.898438 37.539062 C 323.089844 32.875 322.59375 28.238281 320.371094 24.203125 C 317.574219 19.207031 312.496094 15.96875 307.171875 13.71875 C 307.007812 14.269531 306.898438 14.816406 306.789062 15.394531 C 305.910156 20.71875 306.625 26.289062 308.820312 31.226562 C 309.503906 32.765625 310.355469 34.273438 311.535156 35.480469 C 314.417969 38.390625 319.082031 38.992188 322.898438 37.539062 Z M 322.898438 37.539062 " fill-opacity="1" fill-rule="nonzero"/><path fill="#654062" d="M 342.132812 59.847656 C 341.007812 59.847656 339.9375 59.601562 339.003906 59.136719 C 335.382812 57.296875 334.421875 52.550781 334.75 48.707031 C 335.082031 44.976562 336.5625 37.949219 340.101562 35.34375 C 341.390625 34.410156 342.820312 34.109375 344.382812 34.464844 C 347.621094 35.179688 351.050781 38.003906 353.082031 41.628906 C 354.699219 44.507812 355.167969 47.417969 354.371094 49.777344 C 353.21875 53.207031 350.777344 56.253906 347.703125 58.148438 C 345.835938 59.273438 343.917969 59.847656 342.132812 59.847656 Z M 343.148438 35.125 C 342.214844 35.125 341.363281 35.425781 340.570312 36.003906 C 337.25 38.445312 335.847656 45.167969 335.546875 48.789062 C 335.246094 52.355469 336.097656 56.773438 339.359375 58.394531 C 341.527344 59.492188 344.492188 59.136719 347.238281 57.40625 C 350.144531 55.621094 352.449219 52.714844 353.546875 49.476562 C 354.261719 47.335938 353.851562 44.671875 352.339844 41.984375 C 350.445312 38.609375 347.15625 35.890625 344.191406 35.207031 C 343.835938 35.179688 343.503906 35.125 343.148438 35.125 Z M 249.492188 63.691406 C 248.835938 63.691406 248.148438 63.609375 247.515625 63.441406 C 246.226562 63.085938 244.9375 62.398438 243.675781 61.332031 C 240.109375 58.339844 237.96875 53.480469 237.96875 48.351562 C 237.96875 44.34375 239.476562 36.824219 243.539062 33.667969 C 244.582031 32.847656 245.707031 32.515625 246.859375 32.710938 C 249.765625 33.148438 252.210938 36.660156 253.992188 39.242188 C 254.210938 39.542969 254.40625 39.816406 254.570312 40.089844 C 256.957031 43.4375 258.382812 46.539062 258.960938 49.558594 C 259.671875 53.34375 258.960938 57.078125 257.011719 59.765625 C 255.199219 62.207031 252.320312 63.691406 249.492188 63.691406 Z M 246.253906 33.476562 C 245.515625 33.476562 244.773438 33.753906 244.058594 34.328125 C 240.65625 36.988281 238.820312 43.519531 238.820312 48.351562 C 238.820312 53.234375 240.847656 57.871094 244.222656 60.699219 C 245.375 61.660156 246.558594 62.316406 247.738281 62.648438 C 250.78125 63.46875 254.324219 62.070312 256.351562 59.246094 C 258.191406 56.71875 258.824219 53.234375 258.164062 49.667969 C 257.617188 46.757812 256.214844 43.769531 253.910156 40.53125 C 253.71875 40.253906 253.527344 39.980469 253.308594 39.679688 C 251.605469 37.238281 249.273438 33.890625 246.75 33.503906 C 246.585938 33.476562 246.417969 33.476562 246.253906 33.476562 Z M 277.839844 108.253906 C 276.824219 108.253906 275.835938 108.199219 274.820312 108.0625 C 267.382812 107.019531 260.550781 101.449219 257.863281 94.148438 C 255.253906 87.070312 256.40625 78.671875 260.910156 72.277344 L 261.238281 72.527344 L 260.910156 72.277344 C 263.707031 68.300781 267.550781 65.253906 271.28125 62.316406 C 272.105469 61.6875 272.925781 61.027344 273.75 60.371094 C 275.808594 58.695312 277.648438 56.773438 279.429688 54.9375 C 280.5 53.8125 281.625 52.660156 282.777344 51.535156 C 289.886719 44.785156 301.933594 41.683594 311.207031 48.816406 C 314.582031 51.425781 317.023438 55.019531 319.382812 58.503906 C 320.425781 60.039062 321.496094 61.632812 322.648438 63.113281 C 324.296875 65.253906 326.164062 67.285156 328 69.234375 C 330.523438 71.949219 333.132812 74.777344 335.191406 77.960938 C 338.347656 82.871094 340.707031 90.691406 336.945312 96.699219 C 332.914062 103.148438 324.269531 103.890625 320.730469 103.917969 C 318.148438 103.945312 315.515625 103.699219 312.992188 103.480469 C 309.617188 103.175781 306.101562 102.847656 302.699219 103.148438 C 298.886719 103.480469 295.097656 104.605469 291.421875 105.675781 C 286.976562 106.9375 282.449219 108.253906 277.839844 108.253906 Z M 261.621094 72.746094 C 257.285156 78.945312 256.160156 87.042969 258.6875 93.875 C 261.265625 100.871094 267.824219 106.25 274.957031 107.238281 C 280.417969 108.007812 285.632812 106.46875 291.175781 104.851562 C 294.878906 103.78125 298.722656 102.65625 302.617188 102.300781 C 306.101562 101.996094 309.644531 102.328125 313.074219 102.628906 C 315.597656 102.847656 318.175781 103.09375 320.730469 103.066406 C 324.132812 103.039062 332.417969 102.328125 336.261719 96.234375 C 339.800781 90.582031 337.550781 83.089844 334.503906 78.398438 C 332.5 75.269531 329.894531 72.5 327.398438 69.78125 C 325.558594 67.804688 323.664062 65.777344 322.019531 63.609375 C 320.867188 62.097656 319.769531 60.507812 318.726562 58.941406 C 316.421875 55.511719 314.007812 51.972656 310.742188 49.449219 C 301.824219 42.589844 290.242188 45.578125 283.382812 52.109375 C 282.230469 53.207031 281.132812 54.359375 280.0625 55.484375 C 278.277344 57.351562 276.414062 59.273438 274.328125 61 C 273.503906 61.660156 272.679688 62.316406 271.855469 62.976562 C 268.125 65.859375 264.339844 68.847656 261.621094 72.746094 Z M 313.375 36.523438 C 309.394531 36.523438 305.9375 33.503906 304.402344 30.183594 C 302.480469 26.097656 302.78125 21.402344 303.222656 17.808594 C 303.824219 12.980469 305.335938 6.667969 308.984375 3.84375 C 310.492188 2.6875 312.277344 2.222656 314.253906 2.496094 C 317.160156 2.910156 320.152344 4.941406 322.648438 8.261719 C 324.871094 11.195312 326.410156 14.707031 326.765625 17.699219 C 327.34375 22.363281 325.421875 27.550781 321.496094 31.996094 C 319.21875 34.574219 316.96875 36.03125 314.636719 36.414062 C 314.226562 36.46875 313.785156 36.523438 313.375 36.523438 Z M 304.019531 17.890625 C 303.578125 21.402344 303.304688 25.929688 305.113281 29.828125 C 306.679688 33.203125 310.4375 36.277344 314.5 35.589844 C 316.640625 35.234375 318.726562 33.863281 320.867188 31.445312 C 324.625 27.195312 326.464844 22.226562 325.914062 17.808594 C 325.285156 12.59375 320.234375 4.171875 314.089844 3.320312 C 312.332031 3.074219 310.769531 3.484375 309.449219 4.5 C 305.855469 7.273438 304.511719 14.078125 304.019531 17.890625 Z M 275.257812 32.847656 C 273.394531 32.847656 271.5 32.460938 269.773438 31.476562 C 263.953125 27.988281 264.3125 19.757812 264.53125 17.316406 L 264.941406 17.34375 L 264.53125 17.316406 C 265.105469 11.523438 267.960938 4.390625 272.816406 2.414062 C 275.644531 1.261719 278.691406 2.058594 281.871094 4.773438 C 285.960938 8.261719 290.1875 14.378906 290.40625 20.195312 C 290.542969 23.40625 289.445312 26.179688 287.195312 28.429688 C 285.796875 29.828125 283.902344 30.898438 281.242188 31.777344 C 279.539062 32.324219 277.425781 32.847656 275.257812 32.847656 Z M 275.371094 2.746094 C 274.601562 2.746094 273.859375 2.882812 273.121094 3.183594 C 268.785156 4.941406 265.929688 11.664062 265.355469 17.398438 C 265.132812 19.703125 264.804688 27.523438 270.210938 30.734375 C 273.640625 32.765625 277.949219 31.996094 280.996094 30.980469 C 283.519531 30.128906 285.304688 29.140625 286.621094 27.824219 C 288.707031 25.738281 289.695312 23.1875 289.582031 20.195312 C 289.363281 14.625 285.277344 8.753906 281.324219 5.378906 C 279.265625 3.648438 277.261719 2.746094 275.371094 2.746094 Z M 275.371094 2.746094 " fill-opacity="1" fill-rule="nonzero"/><g fill="#654062" fill-opacity="0.302"><g transform="translate(32.858808, 116.071119)"><g><path d="M 58.757812 -42.144531 C 58.757812 -51.433594 51.433594 -57.777344 41.160156 -57.777344 C 25.601562 -57.777344 16.917969 -45.390625 16.917969 -29.304688 C 16.917969 -28.472656 17.597656 -27.71875 18.503906 -27.71875 C 19.410156 -27.71875 20.089844 -28.472656 20.089844 -29.304688 C 20.089844 -43.199219 27.414062 -54.527344 40.40625 -54.527344 C 49.242188 -54.527344 55.585938 -50.375 55.585938 -42.144531 C 55.585938 -33.683594 49.847656 -24.621094 41.160156 -24.621094 C 39.199219 -24.621094 37.082031 -25.074219 34.96875 -25.828125 C 34.742188 -25.90625 34.589844 -25.90625 34.363281 -25.90625 C 33.609375 -25.90625 32.851562 -25.375 32.851562 -24.394531 C 32.851562 -23.714844 33.230469 -23.109375 33.910156 -22.882812 C 36.253906 -21.976562 38.59375 -21.449219 40.933594 -21.449219 C 51.582031 -21.449219 58.757812 -31.417969 58.757812 -42.144531 Z M 39.199219 -45.917969 C 40.105469 -47.503906 41.839844 -49.695312 43.804688 -49.921875 C 44.484375 -50.074219 45.316406 -50.601562 45.164062 -51.808594 C 45.089844 -52.566406 44.257812 -53.09375 43.503906 -53.09375 C 41.160156 -53.09375 37.839844 -50.300781 36.402344 -47.355469 C 34.214844 -43.125 32.324219 -36.707031 30.285156 -29.832031 C 25.453125 -13.367188 21.070312 1.433594 10.949219 1.433594 C 6.722656 1.433594 3.171875 -1.285156 3.171875 -5.890625 C 3.171875 -10.269531 6.722656 -14.953125 10.875 -14.953125 C 11.328125 -14.953125 11.78125 -14.953125 12.160156 -14.804688 C 13.140625 -14.5 14.199219 -15.257812 14.199219 -16.3125 C 14.199219 -17.75 12.613281 -18.125 11.027344 -18.125 C 5.058594 -18.125 0 -12.386719 0 -5.738281 C 0 0.378906 4.683594 4.605469 10.875 4.605469 C 24.167969 4.605469 29.078125 -14.351562 33.382812 -29 C 35.269531 -35.648438 37.160156 -41.917969 39.199219 -45.917969 Z M 39.199219 -45.917969 "/></g></g></g><g fill="#654062" fill-opacity="0.302"><g transform="translate(88.06715, 116.071119)"><g><path d="M 33.835938 -17.976562 C 33.609375 -18.050781 33.382812 -18.125 33.15625 -18.125 C 32.550781 -18.125 32.023438 -17.75 31.71875 -17.144531 L 31.644531 -16.917969 C 29.152344 -11.328125 25.527344 -3.171875 20.84375 -3.171875 C 19.257812 -3.171875 18.578125 -4.078125 18.578125 -6.34375 C 18.578125 -9.667969 21.070312 -16.238281 23.789062 -23.867188 L 27.566406 -33.988281 C 27.945312 -34.894531 27.339844 -36.101562 26.132812 -36.101562 C 25.453125 -36.101562 24.847656 -35.722656 24.621094 -35.121094 C 24.242188 -34.136719 23.789062 -33.003906 23.335938 -31.71875 C 21.976562 -34.441406 19.636719 -35.722656 16.464844 -35.722656 C 7.402344 -35.722656 -0.226562 -18.050781 -0.226562 -8.15625 C -0.226562 -3.625 1.738281 0 5.964844 0 C 9.214844 0 12.386719 -2.113281 15.40625 -6.34375 C 15.40625 -2.644531 17.21875 0 20.84375 0 C 27.640625 0 31.71875 -9.289062 34.589844 -15.632812 L 34.667969 -15.859375 C 34.742188 -16.085938 34.816406 -16.3125 34.816406 -16.539062 C 34.816406 -17.144531 34.441406 -17.671875 33.835938 -17.976562 Z M 5.890625 -3.171875 C 3.625 -3.171875 2.945312 -5.363281 2.945312 -8.683594 C 3.097656 -16.164062 9.515625 -32.398438 16.464844 -32.550781 C 19.183594 -32.550781 21.148438 -30.511719 21.296875 -27.039062 L 19.484375 -22.203125 C 16.464844 -14.5 12.007812 -3.171875 5.890625 -3.171875 Z M 5.890625 -3.171875 "/></g></g></g><g fill="#654062" fill-opacity="0.302"><g transform="translate(118.503491, 116.071119)"><g><path d="M 44.105469 -16.539062 C 44.105469 -17.445312 43.277344 -18.125 42.445312 -18.125 C 41.839844 -18.125 41.3125 -17.75 41.011719 -17.144531 C 38.59375 -11.554688 36.175781 -8.003906 32.25 -8.003906 C 30.890625 -8.003906 29.453125 -8.609375 28.699219 -9.589844 C 31.34375 -14.199219 37.6875 -26.8125 41.011719 -33.609375 C 41.085938 -33.835938 41.160156 -34.0625 41.160156 -34.363281 C 41.160156 -35.195312 40.480469 -35.949219 39.652344 -35.949219 C 39.046875 -35.949219 38.441406 -35.574219 38.140625 -35.042969 C 35.800781 -30.132812 29.90625 -18.578125 27.640625 -14.273438 C 27.71875 -14.804688 27.792969 -15.484375 28.019531 -16.085938 C 28.320312 -17.144531 27.492188 -18.125 26.433594 -18.125 C 25.679688 -18.125 25.148438 -17.671875 24.921875 -16.917969 C 24.320312 -14.804688 24.167969 -12.007812 25 -9.742188 C 21.601562 -4.910156 20.242188 -3.171875 17.824219 -3.171875 C 16.390625 -3.171875 15.558594 -3.925781 15.558594 -6.34375 C 15.558594 -10.121094 19.636719 -21.148438 24.394531 -33.761719 C 24.773438 -34.742188 24.015625 -35.875 22.808594 -35.875 C 22.203125 -35.875 21.601562 -35.496094 21.375 -34.894531 C 20.542969 -32.550781 16.3125 -20.617188 14.953125 -17.21875 C 10.875 -7.023438 7.703125 -3.171875 4.078125 -3.171875 C 2.492188 -3.171875 1.8125 -4.078125 1.8125 -6.34375 C 1.8125 -9.289062 3.246094 -13.367188 10.648438 -33.761719 C 11.027344 -34.742188 10.421875 -35.875 9.136719 -35.875 C 8.535156 -35.875 7.929688 -35.496094 7.703125 -34.894531 C 1.207031 -17.671875 -1.359375 -10.121094 -1.359375 -6.34375 C -1.359375 -2.644531 0.453125 0 4.078125 0 C 7.476562 0 10.195312 -2.265625 12.386719 -5.363281 C 12.839844 -2.113281 14.351562 0 17.824219 0 C 21.375 0 24.09375 -2.871094 26.960938 -6.871094 C 28.171875 -5.664062 29.984375 -4.832031 32.25 -4.832031 C 37.613281 -4.832031 41.839844 -10.121094 43.957031 -15.9375 C 44.03125 -16.164062 44.105469 -16.3125 44.105469 -16.539062 Z M 44.105469 -16.539062 "/></g></g></g><g fill="#654062" fill-opacity="0.302"><g transform="translate(158.22933, 116.071119)"><g><path d="M 83.230469 -45.84375 C 83.230469 -52.414062 79.90625 -55.8125 73.484375 -55.8125 C 68.199219 -55.8125 63.367188 -51.886719 59.289062 -46.902344 C 59.289062 -52.1875 56.417969 -56.570312 51.507812 -56.570312 C 45.238281 -56.570312 40.707031 -51.433594 34.589844 -43.652344 L 38.820312 -56.644531 C 39.046875 -57.398438 38.746094 -58.757812 37.308594 -58.757812 C 37.007812 -58.757812 36.707031 -58.683594 36.402344 -58.457031 C 35.347656 -57.703125 33.988281 -56.796875 32.625 -55.8125 C 26.28125 -51.207031 18.351562 -45.542969 11.40625 -45.542969 C 6.417969 -45.542969 3.246094 -48.335938 3.246094 -54 C 3.246094 -54.90625 2.644531 -55.738281 1.660156 -55.738281 C 0.90625 -55.738281 0.152344 -55.132812 0.0742188 -54.378906 C -0.679688 -47.050781 4.378906 -42.371094 11.40625 -42.371094 C 20.242188 -42.371094 28.019531 -48.488281 34.289062 -53.019531 L 28.398438 -35.042969 C 28.246094 -34.742188 21.75 -24.621094 21.296875 -24.015625 C 14.652344 -15.332031 10.648438 -8.761719 10.574219 -4.53125 C 10.574219 -1.886719 11.78125 0.226562 14.578125 0.226562 C 19.5625 0.226562 21.601562 -3.851562 25.601562 -16.238281 L 31.265625 -33.609375 C 37.007812 -41.917969 45.089844 -53.394531 51.355469 -53.394531 C 54.753906 -53.394531 56.117188 -50.300781 56.117188 -46.449219 C 56.117188 -44.636719 55.738281 -42.445312 54.980469 -39.878906 C 51.507812 -28.171875 47.050781 -14.652344 42.746094 -2.566406 C 42.445312 -1.585938 43.050781 -0.453125 44.257812 -0.453125 C 44.9375 -0.453125 45.542969 -0.832031 45.769531 -1.511719 C 52.640625 -21.222656 53.546875 -24.09375 58.53125 -40.707031 C 62.15625 -46.371094 67.972656 -52.867188 73.484375 -52.867188 C 77.941406 -52.867188 80.285156 -50.828125 80.285156 -45.84375 C 80.285156 -40.632812 78.019531 -35.042969 74.921875 -26.507812 C 71.671875 -17.523438 64.574219 1.433594 64.574219 6.871094 C 64.574219 11.632812 67.671875 15.105469 72.882812 15.105469 C 73.710938 15.105469 74.390625 14.425781 74.390625 13.59375 C 74.390625 12.765625 73.710938 12.160156 72.882812 12.160156 C 69.9375 12.160156 67.59375 10.269531 67.59375 6.871094 C 67.59375 2.191406 74.46875 -16.617188 77.714844 -25.453125 C 80.886719 -34.214844 83.378906 -40.40625 83.230469 -45.84375 Z M 22.582031 -17.21875 C 19.257812 -6.871094 17.671875 -3.019531 14.578125 -3.019531 C 14.046875 -3.019531 13.746094 -3.472656 13.746094 -4.230469 C 13.820312 -8.761719 17.070312 -11.933594 23.941406 -22.203125 C 24.320312 -22.734375 24.320312 -22.734375 24.46875 -23.035156 Z M 22.582031 -17.21875 "/></g></g></g><g fill="#654062" fill-opacity="0.302"><g transform="translate(238.436249, 116.071119)"><g><path d="M 33.835938 -17.976562 C 33.609375 -18.050781 33.382812 -18.125 33.15625 -18.125 C 32.550781 -18.125 32.023438 -17.75 31.71875 -17.144531 L 31.644531 -16.917969 C 29.152344 -11.328125 25.527344 -3.171875 20.84375 -3.171875 C 19.257812 -3.171875 18.578125 -4.078125 18.578125 -6.34375 C 18.578125 -9.667969 21.070312 -16.238281 23.789062 -23.867188 L 27.566406 -33.988281 C 27.945312 -34.894531 27.339844 -36.101562 26.132812 -36.101562 C 25.453125 -36.101562 24.847656 -35.722656 24.621094 -35.121094 C 24.242188 -34.136719 23.789062 -33.003906 23.335938 -31.71875 C 21.976562 -34.441406 19.636719 -35.722656 16.464844 -35.722656 C 7.402344 -35.722656 -0.226562 -18.050781 -0.226562 -8.15625 C -0.226562 -3.625 1.738281 0 5.964844 0 C 9.214844 0 12.386719 -2.113281 15.40625 -6.34375 C 15.40625 -2.644531 17.21875 0 20.84375 0 C 27.640625 0 31.71875 -9.289062 34.589844 -15.632812 L 34.667969 -15.859375 C 34.742188 -16.085938 34.816406 -16.3125 34.816406 -16.539062 C 34.816406 -17.144531 34.441406 -17.671875 33.835938 -17.976562 Z M 5.890625 -3.171875 C 3.625 -3.171875 2.945312 -5.363281 2.945312 -8.683594 C 3.097656 -16.164062 9.515625 -32.398438 16.464844 -32.550781 C 19.183594 -32.550781 21.148438 -30.511719 21.296875 -27.039062 L 19.484375 -22.203125 C 16.464844 -14.5 12.007812 -3.171875 5.890625 -3.171875 Z M 5.890625 -3.171875 "/></g></g></g><g fill="#654062" fill-opacity="0.302"><g transform="translate(268.872601, 116.071119)"><g><path d="M 19.183594 -17.976562 C 18.957031 -18.050781 18.730469 -18.125 18.503906 -18.125 C 17.898438 -18.125 17.296875 -17.75 16.992188 -17.21875 C 13.445312 -9.441406 9.816406 -3.171875 4.378906 -3.171875 C 2.871094 -3.171875 1.964844 -4.304688 1.964844 -6.34375 C 1.964844 -8.535156 2.945312 -12.007812 6.042969 -20.769531 C 8.535156 -27.792969 9.816406 -31.265625 10.269531 -32.703125 L 16.464844 -32.703125 C 17.371094 -32.703125 18.050781 -33.382812 18.050781 -34.289062 C 18.050781 -35.121094 17.371094 -35.875 16.464844 -35.875 L 11.40625 -35.875 C 11.933594 -37.308594 15.179688 -46.523438 14.953125 -46.070312 C 15.332031 -47.050781 14.578125 -48.183594 13.445312 -48.183594 C 12.765625 -48.183594 12.160156 -47.808594 11.933594 -47.128906 C 11.859375 -46.824219 8.15625 -36.175781 8.003906 -35.875 L 2.191406 -35.875 C 1.285156 -35.875 0.605469 -35.121094 0.605469 -34.289062 C 0.605469 -33.382812 1.285156 -32.703125 2.191406 -32.703125 L 6.949219 -32.703125 L 3.097656 -21.902344 C 0.679688 -15.710938 -1.207031 -9.136719 -1.207031 -6.34375 C -1.207031 -2.71875 0.753906 0 4.378906 0 C 11.328125 0 15.558594 -6.417969 19.9375 -15.859375 C 20.015625 -16.085938 20.089844 -16.3125 20.089844 -16.539062 C 20.089844 -17.144531 19.710938 -17.671875 19.183594 -17.976562 Z M 19.183594 -17.976562 "/></g></g></g><g fill="#654062" fill-opacity="0.302"><g transform="translate(284.58168, 116.071119)"><g><path d="M 27.339844 -17.976562 C 26.507812 -18.277344 25.601562 -17.898438 25.226562 -17.144531 C 20.996094 -7.402344 16.164062 -3.019531 9.96875 -3.171875 C 5.4375 -3.324219 3.019531 -5.964844 3.171875 -10.269531 C 3.246094 -11.859375 3.472656 -13.292969 4.003906 -15.257812 C 12.386719 -17.296875 23.640625 -22.128906 23.640625 -30.132812 C 23.640625 -33.761719 20.996094 -35.722656 17.21875 -35.722656 C 8.308594 -35.722656 0.453125 -20.015625 0 -10.347656 C -0.152344 -4.152344 3.625 0 9.894531 0 C 17.523438 0 23.261719 -4.984375 28.171875 -15.859375 C 28.246094 -16.085938 28.320312 -16.238281 28.320312 -16.464844 C 28.320312 -17.070312 27.945312 -17.671875 27.339844 -17.976562 Z M 5.210938 -18.882812 C 7.628906 -24.695312 12.007812 -32.550781 17.21875 -32.550781 C 18.882812 -32.550781 20.46875 -32.171875 20.46875 -30.132812 C 20.46875 -24.546875 11.480469 -20.84375 5.210938 -18.882812 Z M 5.210938 -18.882812 "/></g></g></g><g fill="#654062" fill-opacity="0.502"><g transform="translate(31.260497, 115.256739)"><g><path d="M 58.757812 -42.144531 C 58.757812 -51.433594 51.433594 -57.777344 41.160156 -57.777344 C 25.601562 -57.777344 16.917969 -45.390625 16.917969 -29.304688 C 16.917969 -28.472656 17.597656 -27.71875 18.503906 -27.71875 C 19.410156 -27.71875 20.089844 -28.472656 20.089844 -29.304688 C 20.089844 -43.199219 27.414062 -54.527344 40.40625 -54.527344 C 49.242188 -54.527344 55.585938 -50.375 55.585938 -42.144531 C 55.585938 -33.683594 49.847656 -24.621094 41.160156 -24.621094 C 39.199219 -24.621094 37.082031 -25.074219 34.96875 -25.828125 C 34.742188 -25.90625 34.589844 -25.90625 34.363281 -25.90625 C 33.609375 -25.90625 32.851562 -25.375 32.851562 -24.394531 C 32.851562 -23.714844 33.230469 -23.109375 33.910156 -22.882812 C 36.253906 -21.976562 38.59375 -21.449219 40.933594 -21.449219 C 51.582031 -21.449219 58.757812 -31.417969 58.757812 -42.144531 Z M 39.199219 -45.917969 C 40.105469 -47.503906 41.839844 -49.695312 43.804688 -49.921875 C 44.484375 -50.074219 45.316406 -50.601562 45.164062 -51.808594 C 45.089844 -52.566406 44.257812 -53.09375 43.503906 -53.09375 C 41.160156 -53.09375 37.839844 -50.300781 36.402344 -47.355469 C 34.214844 -43.125 32.324219 -36.707031 30.285156 -29.832031 C 25.453125 -13.367188 21.070312 1.433594 10.949219 1.433594 C 6.722656 1.433594 3.171875 -1.285156 3.171875 -5.890625 C 3.171875 -10.269531 6.722656 -14.953125 10.875 -14.953125 C 11.328125 -14.953125 11.78125 -14.953125 12.160156 -14.804688 C 13.140625 -14.5 14.199219 -15.257812 14.199219 -16.3125 C 14.199219 -17.75 12.613281 -18.125 11.027344 -18.125 C 5.058594 -18.125 0 -12.386719 0 -5.738281 C 0 0.378906 4.683594 4.605469 10.875 4.605469 C 24.167969 4.605469 29.078125 -14.351562 33.382812 -29 C 35.269531 -35.648438 37.160156 -41.917969 39.199219 -45.917969 Z M 39.199219 -45.917969 "/></g></g></g><g fill="#654062" fill-opacity="0.502"><g transform="translate(86.468839, 115.256739)"><g><path d="M 33.835938 -17.976562 C 33.609375 -18.050781 33.382812 -18.125 33.15625 -18.125 C 32.550781 -18.125 32.023438 -17.75 31.71875 -17.144531 L 31.644531 -16.917969 C 29.152344 -11.328125 25.527344 -3.171875 20.84375 -3.171875 C 19.257812 -3.171875 18.578125 -4.078125 18.578125 -6.34375 C 18.578125 -9.667969 21.070312 -16.238281 23.789062 -23.867188 L 27.566406 -33.988281 C 27.945312 -34.894531 27.339844 -36.101562 26.132812 -36.101562 C 25.453125 -36.101562 24.847656 -35.722656 24.621094 -35.121094 C 24.242188 -34.136719 23.789062 -33.003906 23.335938 -31.71875 C 21.976562 -34.441406 19.636719 -35.722656 16.464844 -35.722656 C 7.402344 -35.722656 -0.226562 -18.050781 -0.226562 -8.15625 C -0.226562 -3.625 1.738281 0 5.964844 0 C 9.214844 0 12.386719 -2.113281 15.40625 -6.34375 C 15.40625 -2.644531 17.21875 0 20.84375 0 C 27.640625 0 31.71875 -9.289062 34.589844 -15.632812 L 34.667969 -15.859375 C 34.742188 -16.085938 34.816406 -16.3125 34.816406 -16.539062 C 34.816406 -17.144531 34.441406 -17.671875 33.835938 -17.976562 Z M 5.890625 -3.171875 C 3.625 -3.171875 2.945312 -5.363281 2.945312 -8.683594 C 3.097656 -16.164062 9.515625 -32.398438 16.464844 -32.550781 C 19.183594 -32.550781 21.148438 -30.511719 21.296875 -27.039062 L 19.484375 -22.203125 C 16.464844 -14.5 12.007812 -3.171875 5.890625 -3.171875 Z M 5.890625 -3.171875 "/></g></g></g><g fill="#654062" fill-opacity="0.502"><g transform="translate(116.90518, 115.256739)"><g><path d="M 44.105469 -16.539062 C 44.105469 -17.445312 43.277344 -18.125 42.445312 -18.125 C 41.839844 -18.125 41.3125 -17.75 41.011719 -17.144531 C 38.59375 -11.554688 36.175781 -8.003906 32.25 -8.003906 C 30.890625 -8.003906 29.453125 -8.609375 28.699219 -9.589844 C 31.34375 -14.199219 37.6875 -26.8125 41.011719 -33.609375 C 41.085938 -33.835938 41.160156 -34.0625 41.160156 -34.363281 C 41.160156 -35.195312 40.480469 -35.949219 39.652344 -35.949219 C 39.046875 -35.949219 38.441406 -35.574219 38.140625 -35.042969 C 35.800781 -30.132812 29.90625 -18.578125 27.640625 -14.273438 C 27.71875 -14.804688 27.792969 -15.484375 28.019531 -16.085938 C 28.320312 -17.144531 27.492188 -18.125 26.433594 -18.125 C 25.679688 -18.125 25.148438 -17.671875 24.921875 -16.917969 C 24.320312 -14.804688 24.167969 -12.007812 25 -9.742188 C 21.601562 -4.910156 20.242188 -3.171875 17.824219 -3.171875 C 16.390625 -3.171875 15.558594 -3.925781 15.558594 -6.34375 C 15.558594 -10.121094 19.636719 -21.148438 24.394531 -33.761719 C 24.773438 -34.742188 24.015625 -35.875 22.808594 -35.875 C 22.203125 -35.875 21.601562 -35.496094 21.375 -34.894531 C 20.542969 -32.550781 16.3125 -20.617188 14.953125 -17.21875 C 10.875 -7.023438 7.703125 -3.171875 4.078125 -3.171875 C 2.492188 -3.171875 1.8125 -4.078125 1.8125 -6.34375 C 1.8125 -9.289062 3.246094 -13.367188 10.648438 -33.761719 C 11.027344 -34.742188 10.421875 -35.875 9.136719 -35.875 C 8.535156 -35.875 7.929688 -35.496094 7.703125 -34.894531 C 1.207031 -17.671875 -1.359375 -10.121094 -1.359375 -6.34375 C -1.359375 -2.644531 0.453125 0 4.078125 0 C 7.476562 0 10.195312 -2.265625 12.386719 -5.363281 C 12.839844 -2.113281 14.351562 0 17.824219 0 C 21.375 0 24.09375 -2.871094 26.960938 -6.871094 C 28.171875 -5.664062 29.984375 -4.832031 32.25 -4.832031 C 37.613281 -4.832031 41.839844 -10.121094 43.957031 -15.9375 C 44.03125 -16.164062 44.105469 -16.3125 44.105469 -16.539062 Z M 44.105469 -16.539062 "/></g></g></g><g fill="#654062" fill-opacity="0.502"><g transform="translate(156.631019, 115.256739)"><g><path d="M 83.230469 -45.84375 C 83.230469 -52.414062 79.90625 -55.8125 73.484375 -55.8125 C 68.199219 -55.8125 63.367188 -51.886719 59.289062 -46.902344 C 59.289062 -52.1875 56.417969 -56.570312 51.507812 -56.570312 C 45.238281 -56.570312 40.707031 -51.433594 34.589844 -43.652344 L 38.820312 -56.644531 C 39.046875 -57.398438 38.746094 -58.757812 37.308594 -58.757812 C 37.007812 -58.757812 36.707031 -58.683594 36.402344 -58.457031 C 35.347656 -57.703125 33.988281 -56.796875 32.625 -55.8125 C 26.28125 -51.207031 18.351562 -45.542969 11.40625 -45.542969 C 6.417969 -45.542969 3.246094 -48.335938 3.246094 -54 C 3.246094 -54.90625 2.644531 -55.738281 1.660156 -55.738281 C 0.90625 -55.738281 0.152344 -55.132812 0.0742188 -54.378906 C -0.679688 -47.050781 4.378906 -42.371094 11.40625 -42.371094 C 20.242188 -42.371094 28.019531 -48.488281 34.289062 -53.019531 L 28.398438 -35.042969 C 28.246094 -34.742188 21.75 -24.621094 21.296875 -24.015625 C 14.652344 -15.332031 10.648438 -8.761719 10.574219 -4.53125 C 10.574219 -1.886719 11.78125 0.226562 14.578125 0.226562 C 19.5625 0.226562 21.601562 -3.851562 25.601562 -16.238281 L 31.265625 -33.609375 C 37.007812 -41.917969 45.089844 -53.394531 51.355469 -53.394531 C 54.753906 -53.394531 56.117188 -50.300781 56.117188 -46.449219 C 56.117188 -44.636719 55.738281 -42.445312 54.980469 -39.878906 C 51.507812 -28.171875 47.050781 -14.652344 42.746094 -2.566406 C 42.445312 -1.585938 43.050781 -0.453125 44.257812 -0.453125 C 44.9375 -0.453125 45.542969 -0.832031 45.769531 -1.511719 C 52.640625 -21.222656 53.546875 -24.09375 58.53125 -40.707031 C 62.15625 -46.371094 67.972656 -52.867188 73.484375 -52.867188 C 77.941406 -52.867188 80.285156 -50.828125 80.285156 -45.84375 C 80.285156 -40.632812 78.019531 -35.042969 74.921875 -26.507812 C 71.671875 -17.523438 64.574219 1.433594 64.574219 6.871094 C 64.574219 11.632812 67.671875 15.105469 72.882812 15.105469 C 73.710938 15.105469 74.390625 14.425781 74.390625 13.59375 C 74.390625 12.765625 73.710938 12.160156 72.882812 12.160156 C 69.9375 12.160156 67.59375 10.269531 67.59375 6.871094 C 67.59375 2.191406 74.46875 -16.617188 77.714844 -25.453125 C 80.886719 -34.214844 83.378906 -40.40625 83.230469 -45.84375 Z M 22.582031 -17.21875 C 19.257812 -6.871094 17.671875 -3.019531 14.578125 -3.019531 C 14.046875 -3.019531 13.746094 -3.472656 13.746094 -4.230469 C 13.820312 -8.761719 17.070312 -11.933594 23.941406 -22.203125 C 24.320312 -22.734375 24.320312 -22.734375 24.46875 -23.035156 Z M 22.582031 -17.21875 "/></g></g></g><g fill="#654062" fill-opacity="0.502"><g transform="translate(236.837938, 115.256739)"><g><path d="M 33.835938 -17.976562 C 33.609375 -18.050781 33.382812 -18.125 33.15625 -18.125 C 32.550781 -18.125 32.023438 -17.75 31.71875 -17.144531 L 31.644531 -16.917969 C 29.152344 -11.328125 25.527344 -3.171875 20.84375 -3.171875 C 19.257812 -3.171875 18.578125 -4.078125 18.578125 -6.34375 C 18.578125 -9.667969 21.070312 -16.238281 23.789062 -23.867188 L 27.566406 -33.988281 C 27.945312 -34.894531 27.339844 -36.101562 26.132812 -36.101562 C 25.453125 -36.101562 24.847656 -35.722656 24.621094 -35.121094 C 24.242188 -34.136719 23.789062 -33.003906 23.335938 -31.71875 C 21.976562 -34.441406 19.636719 -35.722656 16.464844 -35.722656 C 7.402344 -35.722656 -0.226562 -18.050781 -0.226562 -8.15625 C -0.226562 -3.625 1.738281 0 5.964844 0 C 9.214844 0 12.386719 -2.113281 15.40625 -6.34375 C 15.40625 -2.644531 17.21875 0 20.84375 0 C 27.640625 0 31.71875 -9.289062 34.589844 -15.632812 L 34.667969 -15.859375 C 34.742188 -16.085938 34.816406 -16.3125 34.816406 -16.539062 C 34.816406 -17.144531 34.441406 -17.671875 33.835938 -17.976562 Z M 5.890625 -3.171875 C 3.625 -3.171875 2.945312 -5.363281 2.945312 -8.683594 C 3.097656 -16.164062 9.515625 -32.398438 16.464844 -32.550781 C 19.183594 -32.550781 21.148438 -30.511719 21.296875 -27.039062 L 19.484375 -22.203125 C 16.464844 -14.5 12.007812 -3.171875 5.890625 -3.171875 Z M 5.890625 -3.171875 "/></g></g></g><g fill="#654062" fill-opacity="0.502"><g transform="translate(267.27429, 115.256739)"><g><path d="M 19.183594 -17.976562 C 18.957031 -18.050781 18.730469 -18.125 18.503906 -18.125 C 17.898438 -18.125 17.296875 -17.75 16.992188 -17.21875 C 13.445312 -9.441406 9.816406 -3.171875 4.378906 -3.171875 C 2.871094 -3.171875 1.964844 -4.304688 1.964844 -6.34375 C 1.964844 -8.535156 2.945312 -12.007812 6.042969 -20.769531 C 8.535156 -27.792969 9.816406 -31.265625 10.269531 -32.703125 L 16.464844 -32.703125 C 17.371094 -32.703125 18.050781 -33.382812 18.050781 -34.289062 C 18.050781 -35.121094 17.371094 -35.875 16.464844 -35.875 L 11.40625 -35.875 C 11.933594 -37.308594 15.179688 -46.523438 14.953125 -46.070312 C 15.332031 -47.050781 14.578125 -48.183594 13.445312 -48.183594 C 12.765625 -48.183594 12.160156 -47.808594 11.933594 -47.128906 C 11.859375 -46.824219 8.15625 -36.175781 8.003906 -35.875 L 2.191406 -35.875 C 1.285156 -35.875 0.605469 -35.121094 0.605469 -34.289062 C 0.605469 -33.382812 1.285156 -32.703125 2.191406 -32.703125 L 6.949219 -32.703125 L 3.097656 -21.902344 C 0.679688 -15.710938 -1.207031 -9.136719 -1.207031 -6.34375 C -1.207031 -2.71875 0.753906 0 4.378906 0 C 11.328125 0 15.558594 -6.417969 19.9375 -15.859375 C 20.015625 -16.085938 20.089844 -16.3125 20.089844 -16.539062 C 20.089844 -17.144531 19.710938 -17.671875 19.183594 -17.976562 Z M 19.183594 -17.976562 "/></g></g></g><g fill="#654062" fill-opacity="0.502"><g transform="translate(282.983369, 115.256739)"><g><path d="M 27.339844 -17.976562 C 26.507812 -18.277344 25.601562 -17.898438 25.226562 -17.144531 C 20.996094 -7.402344 16.164062 -3.019531 9.96875 -3.171875 C 5.4375 -3.324219 3.019531 -5.964844 3.171875 -10.269531 C 3.246094 -11.859375 3.472656 -13.292969 4.003906 -15.257812 C 12.386719 -17.296875 23.640625 -22.128906 23.640625 -30.132812 C 23.640625 -33.761719 20.996094 -35.722656 17.21875 -35.722656 C 8.308594 -35.722656 0.453125 -20.015625 0 -10.347656 C -0.152344 -4.152344 3.625 0 9.894531 0 C 17.523438 0 23.261719 -4.984375 28.171875 -15.859375 C 28.246094 -16.085938 28.320312 -16.238281 28.320312 -16.464844 C 28.320312 -17.070312 27.945312 -17.671875 27.339844 -17.976562 Z M 5.210938 -18.882812 C 7.628906 -24.695312 12.007812 -32.550781 17.21875 -32.550781 C 18.882812 -32.550781 20.46875 -32.171875 20.46875 -30.132812 C 20.46875 -24.546875 11.480469 -20.84375 5.210938 -18.882812 Z M 5.210938 -18.882812 "/></g></g></g><g fill="#654062" fill-opacity="1"><g transform="translate(29.662186, 114.442359)"><g><path d="M 58.757812 -42.144531 C 58.757812 -51.433594 51.433594 -57.777344 41.160156 -57.777344 C 25.601562 -57.777344 16.917969 -45.390625 16.917969 -29.304688 C 16.917969 -28.472656 17.597656 -27.71875 18.503906 -27.71875 C 19.410156 -27.71875 20.089844 -28.472656 20.089844 -29.304688 C 20.089844 -43.199219 27.414062 -54.527344 40.40625 -54.527344 C 49.242188 -54.527344 55.585938 -50.375 55.585938 -42.144531 C 55.585938 -33.683594 49.847656 -24.621094 41.160156 -24.621094 C 39.199219 -24.621094 37.082031 -25.074219 34.96875 -25.828125 C 34.742188 -25.90625 34.589844 -25.90625 34.363281 -25.90625 C 33.609375 -25.90625 32.851562 -25.375 32.851562 -24.394531 C 32.851562 -23.714844 33.230469 -23.109375 33.910156 -22.882812 C 36.253906 -21.976562 38.59375 -21.449219 40.933594 -21.449219 C 51.582031 -21.449219 58.757812 -31.417969 58.757812 -42.144531 Z M 39.199219 -45.917969 C 40.105469 -47.503906 41.839844 -49.695312 43.804688 -49.921875 C 44.484375 -50.074219 45.316406 -50.601562 45.164062 -51.808594 C 45.089844 -52.566406 44.257812 -53.09375 43.503906 -53.09375 C 41.160156 -53.09375 37.839844 -50.300781 36.402344 -47.355469 C 34.214844 -43.125 32.324219 -36.707031 30.285156 -29.832031 C 25.453125 -13.367188 21.070312 1.433594 10.949219 1.433594 C 6.722656 1.433594 3.171875 -1.285156 3.171875 -5.890625 C 3.171875 -10.269531 6.722656 -14.953125 10.875 -14.953125 C 11.328125 -14.953125 11.78125 -14.953125 12.160156 -14.804688 C 13.140625 -14.5 14.199219 -15.257812 14.199219 -16.3125 C 14.199219 -17.75 12.613281 -18.125 11.027344 -18.125 C 5.058594 -18.125 0 -12.386719 0 -5.738281 C 0 0.378906 4.683594 4.605469 10.875 4.605469 C 24.167969 4.605469 29.078125 -14.351562 33.382812 -29 C 35.269531 -35.648438 37.160156 -41.917969 39.199219 -45.917969 Z M 39.199219 -45.917969 "/></g></g></g><g fill="#654062" fill-opacity="1"><g transform="translate(84.870528, 114.442359)"><g><path d="M 33.835938 -17.976562 C 33.609375 -18.050781 33.382812 -18.125 33.15625 -18.125 C 32.550781 -18.125 32.023438 -17.75 31.71875 -17.144531 L 31.644531 -16.917969 C 29.152344 -11.328125 25.527344 -3.171875 20.84375 -3.171875 C 19.257812 -3.171875 18.578125 -4.078125 18.578125 -6.34375 C 18.578125 -9.667969 21.070312 -16.238281 23.789062 -23.867188 L 27.566406 -33.988281 C 27.945312 -34.894531 27.339844 -36.101562 26.132812 -36.101562 C 25.453125 -36.101562 24.847656 -35.722656 24.621094 -35.121094 C 24.242188 -34.136719 23.789062 -33.003906 23.335938 -31.71875 C 21.976562 -34.441406 19.636719 -35.722656 16.464844 -35.722656 C 7.402344 -35.722656 -0.226562 -18.050781 -0.226562 -8.15625 C -0.226562 -3.625 1.738281 0 5.964844 0 C 9.214844 0 12.386719 -2.113281 15.40625 -6.34375 C 15.40625 -2.644531 17.21875 0 20.84375 0 C 27.640625 0 31.71875 -9.289062 34.589844 -15.632812 L 34.667969 -15.859375 C 34.742188 -16.085938 34.816406 -16.3125 34.816406 -16.539062 C 34.816406 -17.144531 34.441406 -17.671875 33.835938 -17.976562 Z M 5.890625 -3.171875 C 3.625 -3.171875 2.945312 -5.363281 2.945312 -8.683594 C 3.097656 -16.164062 9.515625 -32.398438 16.464844 -32.550781 C 19.183594 -32.550781 21.148438 -30.511719 21.296875 -27.039062 L 19.484375 -22.203125 C 16.464844 -14.5 12.007812 -3.171875 5.890625 -3.171875 Z M 5.890625 -3.171875 "/></g></g></g><g fill="#654062" fill-opacity="1"><g transform="translate(115.306869, 114.442359)"><g><path d="M 44.105469 -16.539062 C 44.105469 -17.445312 43.277344 -18.125 42.445312 -18.125 C 41.839844 -18.125 41.3125 -17.75 41.011719 -17.144531 C 38.59375 -11.554688 36.175781 -8.003906 32.25 -8.003906 C 30.890625 -8.003906 29.453125 -8.609375 28.699219 -9.589844 C 31.34375 -14.199219 37.6875 -26.8125 41.011719 -33.609375 C 41.085938 -33.835938 41.160156 -34.0625 41.160156 -34.363281 C 41.160156 -35.195312 40.480469 -35.949219 39.652344 -35.949219 C 39.046875 -35.949219 38.441406 -35.574219 38.140625 -35.042969 C 35.800781 -30.132812 29.90625 -18.578125 27.640625 -14.273438 C 27.71875 -14.804688 27.792969 -15.484375 28.019531 -16.085938 C 28.320312 -17.144531 27.492188 -18.125 26.433594 -18.125 C 25.679688 -18.125 25.148438 -17.671875 24.921875 -16.917969 C 24.320312 -14.804688 24.167969 -12.007812 25 -9.742188 C 21.601562 -4.910156 20.242188 -3.171875 17.824219 -3.171875 C 16.390625 -3.171875 15.558594 -3.925781 15.558594 -6.34375 C 15.558594 -10.121094 19.636719 -21.148438 24.394531 -33.761719 C 24.773438 -34.742188 24.015625 -35.875 22.808594 -35.875 C 22.203125 -35.875 21.601562 -35.496094 21.375 -34.894531 C 20.542969 -32.550781 16.3125 -20.617188 14.953125 -17.21875 C 10.875 -7.023438 7.703125 -3.171875 4.078125 -3.171875 C 2.492188 -3.171875 1.8125 -4.078125 1.8125 -6.34375 C 1.8125 -9.289062 3.246094 -13.367188 10.648438 -33.761719 C 11.027344 -34.742188 10.421875 -35.875 9.136719 -35.875 C 8.535156 -35.875 7.929688 -35.496094 7.703125 -34.894531 C 1.207031 -17.671875 -1.359375 -10.121094 -1.359375 -6.34375 C -1.359375 -2.644531 0.453125 0 4.078125 0 C 7.476562 0 10.195312 -2.265625 12.386719 -5.363281 C 12.839844 -2.113281 14.351562 0 17.824219 0 C 21.375 0 24.09375 -2.871094 26.960938 -6.871094 C 28.171875 -5.664062 29.984375 -4.832031 32.25 -4.832031 C 37.613281 -4.832031 41.839844 -10.121094 43.957031 -15.9375 C 44.03125 -16.164062 44.105469 -16.3125 44.105469 -16.539062 Z M 44.105469 -16.539062 "/></g></g></g><g fill="#654062" fill-opacity="1"><g transform="translate(155.032708, 114.442359)"><g><path d="M 83.230469 -45.84375 C 83.230469 -52.414062 79.90625 -55.8125 73.484375 -55.8125 C 68.199219 -55.8125 63.367188 -51.886719 59.289062 -46.902344 C 59.289062 -52.1875 56.417969 -56.570312 51.507812 -56.570312 C 45.238281 -56.570312 40.707031 -51.433594 34.589844 -43.652344 L 38.820312 -56.644531 C 39.046875 -57.398438 38.746094 -58.757812 37.308594 -58.757812 C 37.007812 -58.757812 36.707031 -58.683594 36.402344 -58.457031 C 35.347656 -57.703125 33.988281 -56.796875 32.625 -55.8125 C 26.28125 -51.207031 18.351562 -45.542969 11.40625 -45.542969 C 6.417969 -45.542969 3.246094 -48.335938 3.246094 -54 C 3.246094 -54.90625 2.644531 -55.738281 1.660156 -55.738281 C 0.90625 -55.738281 0.152344 -55.132812 0.0742188 -54.378906 C -0.679688 -47.050781 4.378906 -42.371094 11.40625 -42.371094 C 20.242188 -42.371094 28.019531 -48.488281 34.289062 -53.019531 L 28.398438 -35.042969 C 28.246094 -34.742188 21.75 -24.621094 21.296875 -24.015625 C 14.652344 -15.332031 10.648438 -8.761719 10.574219 -4.53125 C 10.574219 -1.886719 11.78125 0.226562 14.578125 0.226562 C 19.5625 0.226562 21.601562 -3.851562 25.601562 -16.238281 L 31.265625 -33.609375 C 37.007812 -41.917969 45.089844 -53.394531 51.355469 -53.394531 C 54.753906 -53.394531 56.117188 -50.300781 56.117188 -46.449219 C 56.117188 -44.636719 55.738281 -42.445312 54.980469 -39.878906 C 51.507812 -28.171875 47.050781 -14.652344 42.746094 -2.566406 C 42.445312 -1.585938 43.050781 -0.453125 44.257812 -0.453125 C 44.9375 -0.453125 45.542969 -0.832031 45.769531 -1.511719 C 52.640625 -21.222656 53.546875 -24.09375 58.53125 -40.707031 C 62.15625 -46.371094 67.972656 -52.867188 73.484375 -52.867188 C 77.941406 -52.867188 80.285156 -50.828125 80.285156 -45.84375 C 80.285156 -40.632812 78.019531 -35.042969 74.921875 -26.507812 C 71.671875 -17.523438 64.574219 1.433594 64.574219 6.871094 C 64.574219 11.632812 67.671875 15.105469 72.882812 15.105469 C 73.710938 15.105469 74.390625 14.425781 74.390625 13.59375 C 74.390625 12.765625 73.710938 12.160156 72.882812 12.160156 C 69.9375 12.160156 67.59375 10.269531 67.59375 6.871094 C 67.59375 2.191406 74.46875 -16.617188 77.714844 -25.453125 C 80.886719 -34.214844 83.378906 -40.40625 83.230469 -45.84375 Z M 22.582031 -17.21875 C 19.257812 -6.871094 17.671875 -3.019531 14.578125 -3.019531 C 14.046875 -3.019531 13.746094 -3.472656 13.746094 -4.230469 C 13.820312 -8.761719 17.070312 -11.933594 23.941406 -22.203125 C 24.320312 -22.734375 24.320312 -22.734375 24.46875 -23.035156 Z M 22.582031 -17.21875 "/></g></g></g><g fill="#654062" fill-opacity="1"><g transform="translate(235.239627, 114.442359)"><g><path d="M 33.835938 -17.976562 C 33.609375 -18.050781 33.382812 -18.125 33.15625 -18.125 C 32.550781 -18.125 32.023438 -17.75 31.71875 -17.144531 L 31.644531 -16.917969 C 29.152344 -11.328125 25.527344 -3.171875 20.84375 -3.171875 C 19.257812 -3.171875 18.578125 -4.078125 18.578125 -6.34375 C 18.578125 -9.667969 21.070312 -16.238281 23.789062 -23.867188 L 27.566406 -33.988281 C 27.945312 -34.894531 27.339844 -36.101562 26.132812 -36.101562 C 25.453125 -36.101562 24.847656 -35.722656 24.621094 -35.121094 C 24.242188 -34.136719 23.789062 -33.003906 23.335938 -31.71875 C 21.976562 -34.441406 19.636719 -35.722656 16.464844 -35.722656 C 7.402344 -35.722656 -0.226562 -18.050781 -0.226562 -8.15625 C -0.226562 -3.625 1.738281 0 5.964844 0 C 9.214844 0 12.386719 -2.113281 15.40625 -6.34375 C 15.40625 -2.644531 17.21875 0 20.84375 0 C 27.640625 0 31.71875 -9.289062 34.589844 -15.632812 L 34.667969 -15.859375 C 34.742188 -16.085938 34.816406 -16.3125 34.816406 -16.539062 C 34.816406 -17.144531 34.441406 -17.671875 33.835938 -17.976562 Z M 5.890625 -3.171875 C 3.625 -3.171875 2.945312 -5.363281 2.945312 -8.683594 C 3.097656 -16.164062 9.515625 -32.398438 16.464844 -32.550781 C 19.183594 -32.550781 21.148438 -30.511719 21.296875 -27.039062 L 19.484375 -22.203125 C 16.464844 -14.5 12.007812 -3.171875 5.890625 -3.171875 Z M 5.890625 -3.171875 "/></g></g></g><g fill="#654062" fill-opacity="1"><g transform="translate(265.675979, 114.442359)"><g><path d="M 19.183594 -17.976562 C 18.957031 -18.050781 18.730469 -18.125 18.503906 -18.125 C 17.898438 -18.125 17.296875 -17.75 16.992188 -17.21875 C 13.445312 -9.441406 9.816406 -3.171875 4.378906 -3.171875 C 2.871094 -3.171875 1.964844 -4.304688 1.964844 -6.34375 C 1.964844 -8.535156 2.945312 -12.007812 6.042969 -20.769531 C 8.535156 -27.792969 9.816406 -31.265625 10.269531 -32.703125 L 16.464844 -32.703125 C 17.371094 -32.703125 18.050781 -33.382812 18.050781 -34.289062 C 18.050781 -35.121094 17.371094 -35.875 16.464844 -35.875 L 11.40625 -35.875 C 11.933594 -37.308594 15.179688 -46.523438 14.953125 -46.070312 C 15.332031 -47.050781 14.578125 -48.183594 13.445312 -48.183594 C 12.765625 -48.183594 12.160156 -47.808594 11.933594 -47.128906 C 11.859375 -46.824219 8.15625 -36.175781 8.003906 -35.875 L 2.191406 -35.875 C 1.285156 -35.875 0.605469 -35.121094 0.605469 -34.289062 C 0.605469 -33.382812 1.285156 -32.703125 2.191406 -32.703125 L 6.949219 -32.703125 L 3.097656 -21.902344 C 0.679688 -15.710938 -1.207031 -9.136719 -1.207031 -6.34375 C -1.207031 -2.71875 0.753906 0 4.378906 0 C 11.328125 0 15.558594 -6.417969 19.9375 -15.859375 C 20.015625 -16.085938 20.089844 -16.3125 20.089844 -16.539062 C 20.089844 -17.144531 19.710938 -17.671875 19.183594 -17.976562 Z M 19.183594 -17.976562 "/></g></g></g><g fill="#654062" fill-opacity="1"><g transform="translate(281.385058, 114.442359)"><g><path d="M 27.339844 -17.976562 C 26.507812 -18.277344 25.601562 -17.898438 25.226562 -17.144531 C 20.996094 -7.402344 16.164062 -3.019531 9.96875 -3.171875 C 5.4375 -3.324219 3.019531 -5.964844 3.171875 -10.269531 C 3.246094 -11.859375 3.472656 -13.292969 4.003906 -15.257812 C 12.386719 -17.296875 23.640625 -22.128906 23.640625 -30.132812 C 23.640625 -33.761719 20.996094 -35.722656 17.21875 -35.722656 C 8.308594 -35.722656 0.453125 -20.015625 0 -10.347656 C -0.152344 -4.152344 3.625 0 9.894531 0 C 17.523438 0 23.261719 -4.984375 28.171875 -15.859375 C 28.246094 -16.085938 28.320312 -16.238281 28.320312 -16.464844 C 28.320312 -17.070312 27.945312 -17.671875 27.339844 -17.976562 Z M 5.210938 -18.882812 C 7.628906 -24.695312 12.007812 -32.550781 17.21875 -32.550781 C 18.882812 -32.550781 20.46875 -32.171875 20.46875 -30.132812 C 20.46875 -24.546875 11.480469 -20.84375 5.210938 -18.882812 Z M 5.210938 -18.882812 "/></g></g></g><path fill="#65d6ce" d="M 159.542969 145.207031 C 159.546875 145.183594 159.550781 145.15625 159.550781 145.128906 C 159.484375 144.027344 158.371094 143.296875 157.34375 143.089844 C 156.414062 142.855469 155.152344 143.117188 154.828125 144.09375 C 154.78125 144.238281 154.777344 144.390625 154.800781 144.535156 C 155.078125 145.789062 156.492188 146.5 157.738281 146.46875 C 158.535156 146.507812 159.460938 146.035156 159.542969 145.207031 Z M 160.023438 140.632812 C 160.085938 139.960938 159.441406 139.359375 158.792969 139.175781 C 157.507812 138.800781 155.816406 139.1875 155.25 140.457031 C 155.207031 140.578125 155.1875 140.703125 155.195312 140.832031 C 155.246094 141.742188 156.234375 142.238281 157.074219 142.296875 C 158.175781 142.398438 159.515625 141.992188 159.953125 140.925781 C 159.992188 140.828125 160.015625 140.730469 160.023438 140.632812 Z M 155.4375 147.691406 C 155.5 146.523438 154.394531 145.589844 153.289062 145.347656 C 152.5 145.101562 151.375 145.390625 151.207031 146.273438 C 151.078125 147.515625 152.351562 148.519531 153.527344 148.691406 C 154.296875 148.859375 155.296875 148.523438 155.4375 147.691406 Z M 156.347656 137.511719 C 156.410156 137.019531 156.160156 136.5 155.660156 136.277344 C 154.320312 135.6875 152.464844 136.347656 152.007812 137.734375 C 151.832031 138.316406 152.242188 138.890625 152.792969 139.105469 C 153.96875 139.554688 155.453125 139.078125 156.128906 138.058594 C 156.25 137.894531 156.324219 137.707031 156.347656 137.511719 Z M 153.253906 142.421875 C 153.367188 141.457031 152.972656 140.414062 152.289062 139.699219 C 151.484375 138.921875 150.523438 138.25 149.4375 137.902344 C 148.667969 137.546875 147.679688 138.039062 147.578125 138.863281 C 147.433594 139.855469 148.042969 140.792969 147.980469 141.785156 C 148.015625 142.640625 147.476562 143.339844 147.09375 144.0625 C 146.734375 144.671875 146.738281 145.570312 147.417969 145.980469 C 148.117188 146.324219 148.9375 146.035156 149.621094 145.792969 C 150.746094 145.273438 151.929688 144.714844 152.707031 143.738281 C 153.027344 143.351562 153.203125 142.894531 153.253906 142.421875 Z M 153.253906 142.421875 " fill-opacity="1" fill-rule="nonzero"/><path fill="#65d6ce" d="M 70.835938 132.128906 C 70.832031 132.101562 70.828125 132.074219 70.820312 132.046875 C 70.511719 130.988281 69.269531 130.523438 68.21875 130.550781 C 67.257812 130.527344 66.089844 131.058594 65.984375 132.085938 C 65.972656 132.234375 66.003906 132.382812 66.058594 132.519531 C 66.605469 133.683594 68.144531 134.0625 69.351562 133.757812 C 70.136719 133.621094 70.933594 132.949219 70.835938 132.128906 Z M 70.289062 127.558594 C 70.199219 126.890625 69.4375 126.445312 68.765625 126.410156 C 67.429688 126.328125 65.863281 127.078125 65.59375 128.445312 C 65.578125 128.570312 65.589844 128.699219 65.621094 128.820312 C 65.871094 129.695312 66.949219 129.964844 67.78125 129.835938 C 68.878906 129.691406 70.09375 129 70.285156 127.859375 C 70.300781 127.753906 70.300781 127.65625 70.289062 127.558594 Z M 67.375 135.457031 C 67.179688 134.304688 65.894531 133.640625 64.765625 133.648438 C 63.941406 133.582031 62.90625 134.113281 62.9375 135.011719 C 63.089844 136.25 64.550781 136.945312 65.734375 136.855469 C 66.523438 136.847656 67.425781 136.300781 67.375 135.457031 Z M 66.011719 125.328125 C 65.964844 124.835938 65.605469 124.382812 65.070312 124.277344 C 63.632812 123.996094 61.96875 125.050781 61.828125 126.503906 C 61.789062 127.109375 62.316406 127.582031 62.898438 127.667969 C 64.144531 127.847656 65.484375 127.054688 65.917969 125.910156 C 66.003906 125.722656 66.03125 125.523438 66.011719 125.328125 Z M 64.085938 130.800781 C 63.976562 129.832031 63.363281 128.90625 62.539062 128.359375 C 61.585938 127.777344 60.496094 127.335938 59.363281 127.238281 C 58.53125 127.0625 57.675781 127.757812 57.757812 128.585938 C 57.839844 129.585938 58.636719 130.363281 58.796875 131.347656 C 59.019531 132.175781 58.652344 132.976562 58.4375 133.761719 C 58.222656 134.4375 58.425781 135.3125 59.175781 135.5625 C 59.933594 135.742188 60.671875 135.277344 61.285156 134.894531 C 62.269531 134.136719 63.300781 133.332031 63.84375 132.207031 C 64.066406 131.753906 64.136719 131.273438 64.085938 130.800781 Z M 64.085938 130.800781 " fill-opacity="1" fill-rule="nonzero"/><g clip-path="url(#c4e88608dc)"><path fill="#65d6ce" d="M 41.449219 145.78125 C 41.453125 145.753906 41.457031 145.726562 41.457031 145.699219 C 41.421875 144.597656 40.335938 143.835938 39.3125 143.597656 C 38.390625 143.335938 37.121094 143.558594 36.765625 144.527344 C 36.714844 144.667969 36.707031 144.820312 36.726562 144.96875 C 36.96875 146.230469 38.359375 146.980469 39.605469 146.988281 C 40.398438 147.050781 41.339844 146.601562 41.449219 145.78125 Z M 42.066406 141.222656 C 42.144531 140.550781 41.519531 139.929688 40.878906 139.726562 C 39.605469 139.3125 37.902344 139.648438 37.296875 140.902344 C 37.25 141.023438 37.230469 141.148438 37.230469 141.277344 C 37.253906 142.1875 38.230469 142.714844 39.066406 142.796875 C 40.167969 142.933594 41.515625 142.566406 41.984375 141.511719 C 42.027344 141.414062 42.054688 141.316406 42.066406 141.222656 Z M 37.269531 148.140625 C 37.367188 146.976562 36.289062 146.007812 35.191406 145.734375 C 34.410156 145.464844 33.277344 145.71875 33.082031 146.597656 C 32.917969 147.832031 34.160156 148.875 35.328125 149.082031 C 36.09375 149.273438 37.101562 148.96875 37.269531 148.140625 Z M 38.484375 137.992188 C 38.558594 137.503906 38.324219 136.976562 37.832031 136.738281 C 36.511719 136.109375 34.636719 136.710938 34.136719 138.085938 C 33.945312 138.660156 34.339844 139.246094 34.882812 139.476562 C 36.046875 139.964844 37.542969 139.53125 38.246094 138.53125 C 38.375 138.371094 38.453125 138.1875 38.484375 137.992188 Z M 35.246094 142.808594 C 35.386719 141.84375 35.023438 140.792969 34.359375 140.058594 C 33.582031 139.257812 32.640625 138.554688 31.566406 138.175781 C 30.808594 137.796875 29.804688 138.257812 29.675781 139.082031 C 29.503906 140.066406 30.082031 141.023438 29.992188 142.015625 C 30 142.871094 29.441406 143.554688 29.035156 144.261719 C 28.660156 144.859375 28.640625 145.761719 29.304688 146.191406 C 29.992188 146.554688 30.820312 146.289062 31.511719 146.070312 C 32.652344 145.585938 33.851562 145.0625 34.660156 144.109375 C 34.992188 143.726562 35.179688 143.277344 35.246094 142.808594 Z M 35.246094 142.808594 " fill-opacity="1" fill-rule="nonzero"/></g><path fill="#65d6ce" d="M 129.242188 131.328125 C 129.238281 131.300781 129.230469 131.273438 129.222656 131.246094 C 128.851562 130.210938 127.578125 129.820312 126.535156 129.914062 C 125.574219 129.949219 124.441406 130.550781 124.398438 131.582031 C 124.394531 131.730469 124.433594 131.878906 124.5 132.011719 C 125.117188 133.136719 126.675781 133.421875 127.859375 133.042969 C 128.636719 132.859375 129.390625 132.140625 129.242188 131.328125 Z M 128.417969 126.800781 C 128.285156 126.136719 127.5 125.738281 126.828125 125.746094 C 125.488281 125.746094 123.972656 126.59375 123.785156 127.972656 C 123.777344 128.097656 123.796875 128.226562 123.835938 128.347656 C 124.140625 129.207031 125.230469 129.40625 126.050781 129.226562 C 127.140625 129.011719 128.308594 128.25 128.429688 127.101562 C 128.441406 126.996094 128.4375 126.894531 128.417969 126.800781 Z M 125.996094 134.863281 C 125.726562 133.726562 124.40625 133.140625 123.277344 133.214844 C 122.449219 133.199219 121.449219 133.796875 121.539062 134.6875 C 121.761719 135.914062 123.265625 136.523438 124.441406 136.359375 C 125.230469 136.304688 126.09375 135.703125 125.996094 134.863281 Z M 124.011719 124.839844 C 123.933594 124.347656 123.546875 123.917969 123.003906 123.847656 C 121.554688 123.65625 119.957031 124.808594 119.910156 126.269531 C 119.90625 126.875 120.460938 127.3125 121.046875 127.363281 C 122.304688 127.464844 123.59375 126.59375 123.953125 125.425781 C 124.027344 125.230469 124.042969 125.03125 124.011719 124.839844 Z M 122.421875 130.417969 C 122.257812 129.457031 121.585938 128.570312 120.730469 128.078125 C 119.742188 127.554688 118.628906 127.179688 117.492188 127.152344 C 116.652344 127.027344 115.839844 127.773438 115.972656 128.597656 C 116.113281 129.585938 116.960938 130.316406 117.179688 131.289062 C 117.453125 132.097656 117.132812 132.921875 116.96875 133.71875 C 116.792969 134.40625 117.050781 135.269531 117.816406 135.472656 C 118.585938 135.605469 119.292969 135.097656 119.882812 134.675781 C 120.816406 133.859375 121.792969 132.992188 122.269531 131.835938 C 122.464844 131.371094 122.503906 130.886719 122.421875 130.417969 Z M 122.421875 130.417969 " fill-opacity="1" fill-rule="nonzero"/><path fill="#65d6ce" d="M 98.308594 143.265625 C 98.3125 143.238281 98.3125 143.210938 98.3125 143.183594 C 98.246094 142.085938 97.136719 141.355469 96.105469 141.148438 C 95.175781 140.914062 93.917969 141.175781 93.589844 142.152344 C 93.542969 142.292969 93.539062 142.445312 93.5625 142.59375 C 93.84375 143.847656 95.257812 144.558594 96.5 144.527344 C 97.296875 144.566406 98.222656 144.089844 98.308594 143.265625 Z M 98.789062 138.691406 C 98.851562 138.019531 98.207031 137.414062 97.558594 137.234375 C 96.273438 136.855469 94.582031 137.242188 94.011719 138.511719 C 93.972656 138.632812 93.953125 138.761719 93.957031 138.886719 C 94.007812 139.796875 95 140.296875 95.839844 140.355469 C 96.941406 140.457031 98.28125 140.050781 98.71875 138.984375 C 98.757812 138.882812 98.78125 138.789062 98.789062 138.691406 Z M 94.199219 145.75 C 94.261719 144.582031 93.15625 143.648438 92.050781 143.402344 C 91.265625 143.15625 90.136719 143.445312 89.96875 144.328125 C 89.84375 145.570312 91.113281 146.574219 92.289062 146.746094 C 93.058594 146.914062 94.058594 146.582031 94.199219 145.75 Z M 95.113281 135.570312 C 95.175781 135.078125 94.925781 134.558594 94.425781 134.335938 C 93.085938 133.742188 91.230469 134.402344 90.773438 135.789062 C 90.597656 136.371094 91.007812 136.945312 91.558594 137.160156 C 92.734375 137.613281 94.21875 137.136719 94.894531 136.117188 C 95.015625 135.953125 95.089844 135.761719 95.113281 135.570312 Z M 92.019531 140.476562 C 92.128906 139.511719 91.738281 138.46875 91.054688 137.757812 C 90.25 136.976562 89.289062 136.304688 88.203125 135.957031 C 87.433594 135.601562 86.445312 136.089844 86.34375 136.917969 C 86.199219 137.910156 86.804688 138.847656 86.742188 139.839844 C 86.777344 140.695312 86.238281 141.394531 85.855469 142.113281 C 85.496094 142.722656 85.503906 143.625 86.179688 144.035156 C 86.878906 144.378906 87.699219 144.089844 88.382812 143.847656 C 89.507812 143.332031 90.695312 142.769531 91.472656 141.796875 C 91.792969 141.40625 91.964844 140.949219 92.019531 140.476562 Z M 92.019531 140.476562 " fill-opacity="1" fill-rule="nonzero"/><path fill="#65d6ce" d="M 189.796875 131.382812 C 189.796875 131.355469 189.792969 131.328125 189.785156 131.300781 C 189.484375 130.242188 188.242188 129.769531 187.191406 129.789062 C 186.234375 129.761719 185.058594 130.289062 184.949219 131.3125 C 184.9375 131.460938 184.964844 131.613281 185.019531 131.75 C 185.5625 132.914062 187.097656 133.304688 188.304688 133.003906 C 189.09375 132.871094 189.894531 132.207031 189.796875 131.382812 Z M 189.277344 126.8125 C 189.191406 126.140625 188.433594 125.691406 187.761719 125.652344 C 186.425781 125.5625 184.855469 126.308594 184.578125 127.671875 C 184.5625 127.796875 184.574219 127.925781 184.605469 128.046875 C 184.851562 128.925781 185.925781 129.195312 186.757812 129.074219 C 187.855469 128.933594 189.074219 128.25 189.273438 127.109375 C 189.289062 127.007812 189.289062 126.90625 189.277344 126.8125 Z M 186.324219 134.695312 C 186.132812 133.539062 184.851562 132.867188 183.71875 132.871094 C 182.898438 132.796875 181.859375 133.324219 181.886719 134.222656 C 182.03125 135.460938 183.488281 136.167969 184.675781 136.082031 C 185.464844 136.082031 186.367188 135.539062 186.324219 134.695312 Z M 185.015625 124.558594 C 184.96875 124.066406 184.613281 123.609375 184.074219 123.503906 C 182.640625 123.214844 180.96875 124.257812 180.824219 125.710938 C 180.78125 126.316406 181.304688 126.789062 181.886719 126.878906 C 183.132812 127.066406 184.476562 126.28125 184.917969 125.140625 C 185.003906 124.953125 185.03125 124.753906 185.015625 124.558594 Z M 183.054688 130.019531 C 182.953125 129.050781 182.34375 128.121094 181.523438 127.570312 C 180.574219 126.984375 179.488281 126.535156 178.351562 126.429688 C 177.523438 126.25 176.664062 126.941406 176.742188 127.769531 C 176.816406 128.769531 177.613281 129.554688 177.765625 130.539062 C 177.984375 131.367188 177.609375 132.164062 177.390625 132.949219 C 177.171875 133.621094 177.375 134.5 178.125 134.753906 C 178.878906 134.9375 179.621094 134.480469 180.234375 134.097656 C 181.222656 133.347656 182.257812 132.546875 182.804688 131.425781 C 183.035156 130.972656 183.105469 130.492188 183.054688 130.019531 Z M 183.054688 130.019531 " fill-opacity="1" fill-rule="nonzero"/></svg>